# xmcd
#
# Track frame offsets: 
#        150
#        31452
#        53963
#        70540
#        100783
#        120728
#        144888
#        175556
#        207308
#
# Disc length: 3009 seconds
#
# Revision: 0
# Processed by: cddbd v1.5.2PL0 Copyright (c) Steve Scherf et al.
# Submitted via: ExactAudioCopy v0.95a4
#
DISCID=730bbf09
DTITLE=The Johnny O. Band - Life's Tough
DYEAR=2012
DGENRE=Blues Rock
TTITLE0=Sweet Little Angel
TTITLE1=I'm Doing Fine
TTITLE2=Mama's Pontiac
TTITLE3=Myrna Moonlight
TTITLE4=Green Blues
TTITLE5=Crescent City People
TTITLE6=Whiskey Drinkin' Woman
TTITLE7=Adobe Flats
TTITLE8=Life's Tough
EXTD=
EXTT0=
EXTT1=
EXTT2=
EXTT3=
EXTT4=
EXTT5=
EXTT6=
EXTT7=
EXTT8=
PLAYORDER=
